<svg xmlns="http://www.w3.org/2000/svg" xmlns:xlink="http://www.w3.org/1999/xlink" viewBox="0 0 1.82 20.43"><defs><style>.cls-1{fill:#54350f;}.cls-2{fill:url(#linear-gradient);}.cls-3{fill:url(#linear-gradient-2);}.cls-4{fill:url(#linear-gradient-3);}.cls-5{fill:url(#linear-gradient-4);}.cls-6{fill:url(#linear-gradient-5);}.cls-7{fill:url(#linear-gradient-6);}.cls-8{fill:url(#linear-gradient-7);}.cls-9{fill:url(#linear-gradient-8);}.cls-10{fill:url(#linear-gradient-9);}.cls-11{fill:url(#linear-gradient-10);}.cls-12{fill:url(#linear-gradient-11);}.cls-13{fill:url(#linear-gradient-12);}.cls-14{fill:url(#linear-gradient-13);}.cls-15{fill:url(#linear-gradient-14);}.cls-16{fill:url(#linear-gradient-15);}.cls-17{fill:url(#linear-gradient-16);}.cls-18{fill:url(#linear-gradient-17);}</style><linearGradient id="linear-gradient" y1="1.11" x2="1.82" y2="1.11" gradientUnits="userSpaceOnUse"><stop offset="0" stop-color="#765931"/><stop offset="0.44" stop-color="#a18867"/><stop offset="1" stop-color="#4f2e00"/></linearGradient><linearGradient id="linear-gradient-2" x1="0" y1="19.52" x2="1.7" y2="19.52" xlink:href="#linear-gradient"/><linearGradient id="linear-gradient-3" x1="0.9" y1="0.44" x2="1.82" y2="0.44" xlink:href="#linear-gradient"/><linearGradient id="linear-gradient-4" x1="0" y1="2.08" x2="1.82" y2="2.08" xlink:href="#linear-gradient"/><linearGradient id="linear-gradient-5" x1="0" y1="13.62" x2="1.82" y2="13.62" xlink:href="#linear-gradient"/><linearGradient id="linear-gradient-6" x1="0" y1="11.06" x2="1.81" y2="11.06" xlink:href="#linear-gradient"/><linearGradient id="linear-gradient-7" x1="0" y1="18.74" x2="1.82" y2="18.74" xlink:href="#linear-gradient"/><linearGradient id="linear-gradient-8" x1="0" y1="16.17" x2="1.81" y2="16.17" xlink:href="#linear-gradient"/><linearGradient id="linear-gradient-9" x1="0" y1="5.92" x2="1.81" y2="5.92" xlink:href="#linear-gradient"/><linearGradient id="linear-gradient-10" x1="0" y1="7.21" x2="1.82" y2="7.21" xlink:href="#linear-gradient"/><linearGradient id="linear-gradient-11" x1="0" y1="8.49" x2="1.81" y2="8.49" xlink:href="#linear-gradient"/><linearGradient id="linear-gradient-12" x1="0" y1="12.34" x2="1.81" y2="12.34" xlink:href="#linear-gradient"/><linearGradient id="linear-gradient-13" x1="0" y1="17.46" x2="1.81" y2="17.46" xlink:href="#linear-gradient"/><linearGradient id="linear-gradient-14" x1="0" y1="4.65" x2="1.82" y2="4.65" xlink:href="#linear-gradient"/><linearGradient id="linear-gradient-15" x1="0" y1="9.77" x2="1.82" y2="9.77" xlink:href="#linear-gradient"/><linearGradient id="linear-gradient-16" x1="0" y1="14.9" x2="1.82" y2="14.9" xlink:href="#linear-gradient"/><linearGradient id="linear-gradient-17" x1="0" y1="3.36" x2="1.81" y2="3.36" xlink:href="#linear-gradient"/></defs><g id="Layer_2" data-name="Layer 2"><g id="Layer_1-2" data-name="Layer 1"><polygon class="cls-1" points="1.64 20.37 0.18 19.4 0.18 0.01 1.64 0.01 1.64 20.37"/><path class="cls-2" d="M.67,0,.86.2l.63.67a1.26,1.26,0,0,1,.32.69,1,1,0,0,1-.14.62l0,0,0-.05a2.2,2.2,0,0,0-.4-.51L.33.73A1.29,1.29,0,0,1,0,0Z"/><path class="cls-3" d="M1.41,20.43a1.47,1.47,0,0,1-1.1-.51h0a1.19,1.19,0,0,1-.3-.79,1,1,0,0,1,.12-.45l0-.06h0a2.76,2.76,0,0,0,.45.57l.84.88a1.31,1.31,0,0,1,.2.28l0,.08Z"/><path class="cls-4" d="M1.77,0c0,.07,0,.14,0,.22a1,1,0,0,1-.12.6l0,.05c0-.06-.08-.13-.13-.19L1.15.26.9,0Z"/><path class="cls-5" d="M1.64,3.5a1.39,1.39,0,0,0-.28-.39C1.23,3,1.09,2.83,1,2.69S.5,2.2.28,2A1.14,1.14,0,0,1,0,1.18.9.9,0,0,1,.13.73l0-.06a4.21,4.21,0,0,0,.72.85l.59.63a1.21,1.21,0,0,1,.33.69,1,1,0,0,1-.12.6Z"/><path class="cls-6" d="M1.64,15A3.5,3.5,0,0,0,1,14.25l-.67-.71A1.3,1.3,0,0,1,0,12.87a1,1,0,0,1,.13-.62v0l0,0c0,.06.07.12.11.17s.21.26.33.38l.86.91a1.28,1.28,0,0,1,.34.7,1,1,0,0,1-.13.62Z"/><path class="cls-7" d="M1.64,12.47a3,3,0,0,0-.49-.62c-.3-.31-.59-.61-.87-.93A1.13,1.13,0,0,1,0,10.15a.84.84,0,0,1,.13-.44s0,0,0-.05l0,0,.07.14a4.6,4.6,0,0,0,.41.47c.29.31.59.61.87.93a1.08,1.08,0,0,1,.28.79.9.9,0,0,1-.13.45Z"/><path class="cls-8" d="M1.64,20.15a4.52,4.52,0,0,0-.78-.91c-.19-.21-.39-.41-.57-.63A1.15,1.15,0,0,1,0,17.84a.9.9,0,0,1,.13-.45l0-.07.11.18a4,4,0,0,0,.38.44l.83.87a1.23,1.23,0,0,1,.32.68,1,1,0,0,1-.13.62Z"/><path class="cls-9" d="M.17,14.75a1.94,1.94,0,0,0,.33.45l.25.26c.26.28.53.55.79.84a1.15,1.15,0,0,1,.27.79.93.93,0,0,1-.16.5l0,0a2.36,2.36,0,0,0-.38-.5l-.87-.92A1.38,1.38,0,0,1,0,15.58a1,1,0,0,1,.07-.72S.15,14.8.17,14.75Z"/><path class="cls-10" d="M1.65,7.33h0a2.58,2.58,0,0,0-.49-.61c-.28-.3-.57-.6-.85-.91A1.18,1.18,0,0,1,0,5a.9.9,0,0,1,.13-.45l0,0a2.71,2.71,0,0,0,.17.25c.14.16.28.31.43.46s.52.55.77.84a1.1,1.1,0,0,1,.27.78,1,1,0,0,1-.12.44Z"/><path class="cls-11" d="M1.65,8.63A3.55,3.55,0,0,0,1,7.85l-.66-.7A1.31,1.31,0,0,1,0,6.46a1,1,0,0,1,.13-.63l0,0a3.06,3.06,0,0,0,.58.71c.23.23.44.47.67.7a1.47,1.47,0,0,1,.33.55,1,1,0,0,1,0,.74Z"/><path class="cls-12" d="M1.64,9.9A4.57,4.57,0,0,0,.92,9C.71,8.82.49,8.59.29,8.36A1.18,1.18,0,0,1,0,7.58a.84.84,0,0,1,.13-.44.25.25,0,0,1,0-.07l.09.15a4.4,4.4,0,0,0,.4.46c.29.3.58.6.85.91a1.09,1.09,0,0,1,.3.81,1,1,0,0,1-.12.44Z"/><path class="cls-13" d="M1.64,13.75A3.36,3.36,0,0,0,1,13c-.24-.25-.48-.5-.7-.76a1.15,1.15,0,0,1-.31-.8,1,1,0,0,1,.16-.5h0a3,3,0,0,0,.45.56l.87.92a1.15,1.15,0,0,1,.31.83.9.9,0,0,1-.13.45Z"/><path class="cls-14" d="M.18,16.05a2.09,2.09,0,0,0,.41.53c.25.25.49.51.73.76a2.85,2.85,0,0,1,.23.26,1.13,1.13,0,0,1,.26.77.9.9,0,0,1-.13.45l0,.05,0-.06a2.74,2.74,0,0,0-.4-.5l-.88-.93A1.24,1.24,0,0,1,0,16.71a1,1,0,0,1,.12-.61s0,0,0,0Z"/><path class="cls-15" d="M.18,3.23a4,4,0,0,0,.72.86c.19.21.39.41.59.62a1.3,1.3,0,0,1,.32.69A.93.93,0,0,1,1.68,6l0,0,0,0A3.85,3.85,0,0,0,1,5.27L.32,4.56A1.23,1.23,0,0,1,0,3.9a1,1,0,0,1,.13-.62S.16,3.25.18,3.23Z"/><path class="cls-16" d="M1.65,11.19a2.4,2.4,0,0,0-.46-.58l-.7-.74a1.64,1.64,0,0,1-.21-.24A1.2,1.2,0,0,1,0,8.86a.9.9,0,0,1,.13-.45s0,0,0-.06a.75.75,0,0,1,.07.12,3.32,3.32,0,0,0,.38.46c.3.3.59.61.88.92a1.11,1.11,0,0,1,.27.5,1,1,0,0,1-.05.72A1.27,1.27,0,0,0,1.65,11.19Z"/><path class="cls-17" d="M.17,13.49l.08.12a4,4,0,0,0,.42.5c.29.3.57.59.85.9a1.2,1.2,0,0,1,.3.81,1.1,1.1,0,0,1-.17.49s0,0,0,0a2.93,2.93,0,0,0-.44-.56c-.29-.3-.58-.6-.86-.91A1.18,1.18,0,0,1,0,14.16a1,1,0,0,1,.13-.63Z"/><path class="cls-18" d="M.17,2a3.94,3.94,0,0,0,.7.82c.22.24.45.47.66.72a1.08,1.08,0,0,1,.28.78,1,1,0,0,1-.12.45l-.05.06,0-.06a2.73,2.73,0,0,0-.37-.47L.43,3.4a1.54,1.54,0,0,1-.17-.19A1.2,1.2,0,0,1,0,2.46.9.9,0,0,1,.13,2Z"/></g></g></svg>